<mxfile host="www.draw.io" modified="2020-03-08T19:06:30.462Z" agent="Mozilla/5.0 (X11; Linux x86_64; rv:73.0) Gecko/20100101 Firefox/73.0" etag="bWc6oDCjDECNTxIAZsC3" version="12.8.1" type="github">
  <diagram name="Page-1" id="9f46799a-70d6-7492-0946-bef42562c5a5">
    <mxGraphModel dx="1422" dy="775" grid="1" gridSize="10" guides="1" tooltips="1" connect="1" arrows="1" fold="1" page="1" pageScale="1" pageWidth="1100" pageHeight="850" background="#ffffff" math="0" shadow="0">
      <root>
        <mxCell id="0" />
        <mxCell id="1" parent="0" />
        <mxCell id="0TzHCgCh-aHxM5HfxgEl-2" value="&lt;b&gt;MAIN&lt;/b&gt;" style="rhombus;whiteSpace=wrap;html=1;" vertex="1" parent="1">
          <mxGeometry x="510" y="370" width="80" height="80" as="geometry" />
        </mxCell>
        <mxCell id="0TzHCgCh-aHxM5HfxgEl-4" value="&lt;b&gt;ENGINE&lt;/b&gt;" style="ellipse;whiteSpace=wrap;html=1;" vertex="1" parent="1">
          <mxGeometry x="370" y="120" width="120" height="80" as="geometry" />
        </mxCell>
        <mxCell id="0TzHCgCh-aHxM5HfxgEl-5" value="&lt;b&gt;GAME&lt;/b&gt;" style="ellipse;whiteSpace=wrap;html=1;" vertex="1" parent="1">
          <mxGeometry x="720" y="540" width="120" height="80" as="geometry" />
        </mxCell>
        <mxCell id="0TzHCgCh-aHxM5HfxgEl-6" value="&lt;b&gt;API&lt;/b&gt;" style="ellipse;whiteSpace=wrap;html=1;aspect=fixed;" vertex="1" parent="1">
          <mxGeometry x="260" y="560" width="80" height="80" as="geometry" />
        </mxCell>
        <mxCell id="0TzHCgCh-aHxM5HfxgEl-7" value="&lt;b&gt;BATTLE&lt;/b&gt;" style="ellipse;whiteSpace=wrap;html=1;aspect=fixed;" vertex="1" parent="1">
          <mxGeometry x="960" y="310" width="80" height="80" as="geometry" />
        </mxCell>
        <mxCell id="0TzHCgCh-aHxM5HfxgEl-8" value="&lt;b&gt;STRATEGYMAP&lt;/b&gt;" style="ellipse;whiteSpace=wrap;html=1;aspect=fixed;" vertex="1" parent="1">
          <mxGeometry x="970" y="620" width="100" height="100" as="geometry" />
        </mxCell>
        <mxCell id="0TzHCgCh-aHxM5HfxgEl-9" value="" style="endArrow=classic;html=1;" edge="1" parent="1" target="0TzHCgCh-aHxM5HfxgEl-5">
          <mxGeometry width="50" height="50" relative="1" as="geometry">
            <mxPoint x="590" y="410" as="sourcePoint" />
            <mxPoint x="640" y="360" as="targetPoint" />
          </mxGeometry>
        </mxCell>
        <mxCell id="0TzHCgCh-aHxM5HfxgEl-10" value="" style="endArrow=classic;html=1;entryX=0.575;entryY=1.038;entryDx=0;entryDy=0;entryPerimeter=0;" edge="1" parent="1" target="0TzHCgCh-aHxM5HfxgEl-4">
          <mxGeometry width="50" height="50" relative="1" as="geometry">
            <mxPoint x="550" y="370" as="sourcePoint" />
            <mxPoint x="600" y="320" as="targetPoint" />
          </mxGeometry>
        </mxCell>
        <mxCell id="0TzHCgCh-aHxM5HfxgEl-11" value="" style="endArrow=classic;html=1;entryX=0.975;entryY=0.213;entryDx=0;entryDy=0;entryPerimeter=0;" edge="1" parent="1" target="0TzHCgCh-aHxM5HfxgEl-6">
          <mxGeometry width="50" height="50" relative="1" as="geometry">
            <mxPoint x="550" y="450" as="sourcePoint" />
            <mxPoint x="600" y="400" as="targetPoint" />
          </mxGeometry>
        </mxCell>
        <mxCell id="0TzHCgCh-aHxM5HfxgEl-12" value="" style="endArrow=classic;html=1;entryX=0;entryY=1;entryDx=0;entryDy=0;" edge="1" parent="1" target="0TzHCgCh-aHxM5HfxgEl-7">
          <mxGeometry width="50" height="50" relative="1" as="geometry">
            <mxPoint x="820" y="550" as="sourcePoint" />
            <mxPoint x="870" y="500" as="targetPoint" />
          </mxGeometry>
        </mxCell>
        <mxCell id="0TzHCgCh-aHxM5HfxgEl-14" value="" style="endArrow=classic;html=1;entryX=0;entryY=0.36;entryDx=0;entryDy=0;entryPerimeter=0;" edge="1" parent="1" target="0TzHCgCh-aHxM5HfxgEl-8">
          <mxGeometry width="50" height="50" relative="1" as="geometry">
            <mxPoint x="830" y="600" as="sourcePoint" />
            <mxPoint x="880" y="550" as="targetPoint" />
          </mxGeometry>
        </mxCell>
        <mxCell id="0TzHCgCh-aHxM5HfxgEl-15" value="&lt;b&gt;GAME&lt;/b&gt;" style="whiteSpace=wrap;html=1;aspect=fixed;" vertex="1" parent="1">
          <mxGeometry x="680" y="290" width="80" height="80" as="geometry" />
        </mxCell>
        <mxCell id="0TzHCgCh-aHxM5HfxgEl-16" value="" style="endArrow=classic;html=1;entryX=0;entryY=0.75;entryDx=0;entryDy=0;" edge="1" parent="1" target="0TzHCgCh-aHxM5HfxgEl-15">
          <mxGeometry width="50" height="50" relative="1" as="geometry">
            <mxPoint x="580" y="400" as="sourcePoint" />
            <mxPoint x="630" y="350" as="targetPoint" />
          </mxGeometry>
        </mxCell>
        <mxCell id="0TzHCgCh-aHxM5HfxgEl-18" value="&lt;b&gt;LOADER&lt;/b&gt;" style="whiteSpace=wrap;html=1;aspect=fixed;" vertex="1" parent="1">
          <mxGeometry x="500" y="550" width="80" height="80" as="geometry" />
        </mxCell>
        <mxCell id="0TzHCgCh-aHxM5HfxgEl-19" value="" style="endArrow=classic;html=1;entryX=-0.05;entryY=0.625;entryDx=0;entryDy=0;entryPerimeter=0;" edge="1" parent="1" target="0TzHCgCh-aHxM5HfxgEl-18">
          <mxGeometry width="50" height="50" relative="1" as="geometry">
            <mxPoint x="340" y="615" as="sourcePoint" />
            <mxPoint x="390" y="565" as="targetPoint" />
          </mxGeometry>
        </mxCell>
        <mxCell id="0TzHCgCh-aHxM5HfxgEl-20" value="" style="endArrow=classic;html=1;exitX=0.5;exitY=1;exitDx=0;exitDy=0;entryX=1;entryY=0.375;entryDx=0;entryDy=0;entryPerimeter=0;" edge="1" parent="1" source="0TzHCgCh-aHxM5HfxgEl-15" target="0TzHCgCh-aHxM5HfxgEl-18">
          <mxGeometry width="50" height="50" relative="1" as="geometry">
            <mxPoint x="710" y="435" as="sourcePoint" />
            <mxPoint x="760" y="385" as="targetPoint" />
          </mxGeometry>
        </mxCell>
        <mxCell id="0TzHCgCh-aHxM5HfxgEl-21" value="&lt;b&gt;BARBARIACONFIG&lt;/b&gt;" style="ellipse;whiteSpace=wrap;html=1;" vertex="1" parent="1">
          <mxGeometry x="270" y="280" width="120" height="80" as="geometry" />
        </mxCell>
        <mxCell id="0TzHCgCh-aHxM5HfxgEl-22" value="" style="endArrow=classic;html=1;" edge="1" parent="1">
          <mxGeometry width="50" height="50" relative="1" as="geometry">
            <mxPoint x="560" y="540" as="sourcePoint" />
            <mxPoint x="610" y="490" as="targetPoint" />
          </mxGeometry>
        </mxCell>
      </root>
    </mxGraphModel>
  </diagram>
</mxfile>
